<svg width="14" height="19" viewBox="0 0 14 19" fill="none" xmlns="http://www.w3.org/2000/svg">
<g clip-path="url(#clip0_0_113)">
<path fill-rule="evenodd" clip-rule="evenodd" d="M7.42401 0C2.48901 0 0.00100708 3.522 0.00100708 6.46C0.00100708 8.238 0.677007 9.82 2.12801 10.41C2.36601 10.507 2.57901 10.413 2.64801 10.151C2.69601 9.97 2.81001 9.512 2.86001 9.321C2.93001 9.062 2.90301 8.971 2.71101 8.745C2.29201 8.254 2.02501 7.618 2.02501 6.717C2.02501 4.104 3.98901 1.765 7.13901 1.765C9.92801 1.765 11.46 3.462 11.46 5.727C11.46 8.709 10.135 11.225 8.16701 11.225C7.08101 11.225 6.26801 10.33 6.52801 9.233C6.84101 7.924 7.44501 6.51 7.44501 5.564C7.44501 4.718 6.98901 4.012 6.04401 4.012C4.93401 4.012 4.04201 5.156 4.04201 6.688C4.04201 7.665 4.37301 8.325 4.37301 8.325C4.37301 8.325 3.23601 13.119 3.03701 13.959C2.64001 15.631 2.97801 17.681 3.00601 17.889C3.02301 18.011 3.18101 18.04 3.25301 17.948C3.35501 17.814 4.67801 16.189 5.12801 14.564C5.25501 14.104 5.85801 11.722 5.85801 11.722C6.21901 12.407 7.27401 13.011 8.39501 13.011C11.734 13.011 13.999 9.98 13.999 5.924C13.999 2.857 11.39 0 7.42401 0Z" fill="white"/>
</g>
<defs>
<clipPath id="clip0_0_113">
<rect width="14" height="19" fill="white"/>
</clipPath>
</defs>
</svg>
