<svg width="18" height="9" viewBox="0 0 18 9" fill="none" xmlns="http://www.w3.org/2000/svg">
<rect width="18" height="9" fill="#E5E5E5"/>
<g id="&#208;&#147;&#208;&#187;&#208;&#176;&#208;&#178;&#208;&#189;&#208;&#176;&#209;&#143;" clip-path="url(#clip0_0_1)">
<rect width="1440" height="4052" transform="translate(-153 -678)" fill="white"/>
<g id="Frame 9">
<g id="Group 9">
<rect id="Rectangle 7" x="-17.5" y="-21.5" width="52" height="52" fill="white" stroke="#F2F2F2"/>
<g id="arrow-2-right-long">
<g id="ico-shape">
<path id="Vector (Stroke)" fill-rule="evenodd" clip-rule="evenodd" d="M18 4.5C18 4.22386 17.7761 4 17.5 4L1.5 4C1.22386 4 1 4.22386 1 4.5C1 4.77614 1.22386 5 1.5 5L17.5 5C17.7761 5 18 4.77614 18 4.5Z" fill="#333333"/>
<path id="Vector 2 (Stroke)" fill-rule="evenodd" clip-rule="evenodd" d="M5.35355 0.646447C5.15829 0.451184 4.84171 0.451184 4.64645 0.646447L0.792894 4.5L4.64645 8.35355C4.84171 8.54882 5.15829 8.54882 5.35355 8.35355C5.54882 8.15829 5.54882 7.84171 5.35355 7.64645L2.20711 4.5L5.35355 1.35355C5.54882 1.15829 5.54882 0.841709 5.35355 0.646447Z" fill="#333333"/>
</g>
</g>
</g>
</g>
</g>
<defs>
<clipPath id="clip0_0_1">
<rect width="1440" height="4052" fill="white" transform="translate(-153 -678)"/>
</clipPath>
</defs>
</svg>
